# xmcd
#
# Track frame offsets:
#   150
#   13793
#   27517
#   45227
#   60465
#   69873
#   86274
#   99935
#   114150
#   131598
#   144672
#   157921
#
# Disc length: 2218 seconds
#
# Revision: 0
# Processed by: cddbd v1.5.2PL0 Copyright (c) Steve Scherf et al.
# Submitted via: GXTranscoder 2.0.1939
#
DISCID=8808a80c
DTITLE=Crossroads - Collection
DYEAR=2003
DGENRE=Country
TTITLE0=Jachson
TTITLE1=Coast To Coast
TTITLE2=Good Hearted Woman
TTITLE3=I Fell Lucky
TTITLE4=I Never Really Knew You
TTITLE5=Too Much Stuff
TTITLE6=Lonesome Me
TTITLE7=House Of Blue Lights
TTITLE8=Blanket On The Ground
TTITLE9=This Is Your Brain
TTITLE10=Put Yourself in my shoes
TTITLE11=This Workink Just ain´t Working
EXTD=
EXTT0=
EXTT1=
EXTT2=
EXTT3=
EXTT4=
EXTT5=
EXTT6=
EXTT7=
EXTT8=
EXTT9=
EXTT10=
EXTT11=
PLAYORDER=
